<svg xmlns="http://www.w3.org/2000/svg" viewBox="0 0 99.02 45.28"><title>Zasób 11</title><g id="Warstwa_2" data-name="Warstwa 2"><g id="Warstwa_1-2" data-name="Warstwa 1"><path d="M12.17,45.15A10,10,0,0,0,17,40a1.37,1.37,0,0,1,1.56-.94c4.73.27,9.46.46,14.2.67a7,7,0,0,0,1.7-.11c-2.16-.29-4.33-.57-6.49-.89-3-.45-6.06-.94-9.09-1.38-.64-.09-.68-.31-.48-.84a7.58,7.58,0,0,0,.46-1.74c.11-.94.56-1.12,1.46-1C26,34.4,31.7,34.86,37.4,35a51.77,51.77,0,0,0,6.59-.2c-2.15-.14-4.31-.24-6.45-.45-5.85-.54-11.64-1.49-17.43-2.46-.62-.1-.59-.4-.53-.9.11-1,.9-10.06-1.87-17-.08-.19-.2-.49-.37-.87q4.25,0,8.94.28c4,.25,7.72.65,11.18,1.15a85.68,85.68,0,0,0-10.73-2.48A83.76,83.76,0,0,0,16.19,11a10.28,10.28,0,0,0-1.56-1.89,10.73,10.73,0,0,0-1.75-1.37c2.54.23,4.8.45,7.06.64,6.22.53,12.43,1.09,18.65,1.56,8.09.61,9.18,1.13,17.3.95a1.76,1.76,0,0,1,1.14.52,15.78,15.78,0,0,0,7.11,2.87A23.43,23.43,0,0,1,58.81,11c-.76-.65-.84-1.06-.13-1.86C61.16,6.31,63.56,3.45,66,.6A1.44,1.44,0,0,1,67.08,0a10.45,10.45,0,0,1,3.48.25,2.06,2.06,0,0,1,1.83,2.34,21.16,21.16,0,0,1-.91,5.71c-.09.36-.19.71-.32,1.22A34.28,34.28,0,0,0,78,9.38c5.68-.73,12.5-1.61,14.44-2a1.79,1.79,0,0,1,1.17.1,1.71,1.71,0,0,1,.76.91,37.26,37.26,0,0,1,2.16,7.05c.56,3,.77,2.6,1.33,5.85.62,3.56.58,5.28-.37,6a1.66,1.66,0,0,1-.67.29c-5.18.92-10.38,1.76-15.63,2.42H83c4.74,0,9.47-.31,14.19-.69.82-.07,1,.24,1.15.92.48,2.4.5,2.41-1.92,2.78a69.85,69.85,0,0,1-13.85.94c-.57,0-1.13-.09-1.7-.09a25,25,0,0,0,5.7.85,81.65,81.65,0,0,0,11.6-.09,1,1,0,0,1,.65.07.67.67,0,0,1,.19.52,16.06,16.06,0,0,1-1.15,5.23c-1.32,3.28-1.2,3.74-2,4.28a4.42,4.42,0,0,1-3.32.47C90.75,44.81,58.38,44.88,12.17,45.15Z"/><path d="M18.07,27.15a31.71,31.71,0,0,1-2.42,12,12.27,12.27,0,0,1-3.31,4.7,4.73,4.73,0,0,1-6.55,0,13.09,13.09,0,0,1-3.93-6.28,35.31,35.31,0,0,1,.42-23.8,12.72,12.72,0,0,1,3-4.7c2.4-2.36,5.19-2.37,7.58,0s3.43,5.35,4.22,8.48A37.16,37.16,0,0,1,18.07,27.15Zm-2.55-1.44a25.79,25.79,0,0,0-.67-6,14,14,0,0,0-2.73-6.15c-1.81-2.13-4.14-2.16-6-.1a10.63,10.63,0,0,0-2.23,4.09,29.75,29.75,0,0,0-.46,15.8A12.85,12.85,0,0,0,6,39c1.78,2.05,4,2.1,5.89.17a9.73,9.73,0,0,0,2-3.23A26.79,26.79,0,0,0,15.52,25.71Z"/><path d="M13.92,26.67a24.57,24.57,0,0,1-1.07,7.4,10,10,0,0,1-2,3.88c-1.19,1.32-2.39,1.33-3.56,0a11.78,11.78,0,0,1-2.49-5.81A27,27,0,0,1,5.87,16.78a7.27,7.27,0,0,1,1.54-2.44,2,2,0,0,1,3.3,0A10.45,10.45,0,0,1,13,19,26.53,26.53,0,0,1,13.92,26.67Zm-7.47-.59a10.41,10.41,0,0,0,.78,4.35c.35.79.84,1.49,1.81,1.5a1.9,1.9,0,0,0,1.82-1.46,11.21,11.21,0,0,0,0-8.46,2,2,0,0,0-1.8-1.5c-1,0-1.5.73-1.87,1.55A10.44,10.44,0,0,0,6.45,26.08Z"/><path d="M10.07,26.29a9.52,9.52,0,0,1-.6,3.42c-.08.2-.14.49-.42.49s-.3-.25-.37-.43a10.07,10.07,0,0,1,0-7.13c.06-.17.14-.41.38-.4s.3.25.37.43A9.13,9.13,0,0,1,10.07,26.29Z"/></g></g></svg>